<svg xmlns="http://www.w3.org/2000/svg" width="64" height="59" viewBox="0 0 64 59">
    <g fill="#000" fill-rule="evenodd">
        <path d="M14.533 16.11H43.6a1.33 1.33 0 0 0 1.321-1.34 1.33 1.33 0 0 0-1.321-1.338H14.533a1.33 1.33 0 0 0-1.321 1.339c0 .74.591 1.339 1.321 1.339zM30.388 29.5H14.533a1.33 1.33 0 0 0-1.321 1.339c0 .74.591 1.34 1.321 1.34h15.855a1.33 1.33 0 0 0 1.321-1.34 1.33 1.33 0 0 0-1.321-1.339z"/>
        <path fill-rule="nonzero" d="M58.36 5.398c-.076 0-.15.02-.227.023v-.023c0-2.954-2.371-5.356-5.284-5.356H5.285C2.37.042 0 2.444 0 5.398v52.221c0 .542.323 1.03.815 1.237a1.312 1.312 0 0 0 1.44-.29L15.08 45.568H52.85c2.913 0 5.284-2.402 5.284-5.356v-22.21l3.804-3.854a5.195 5.195 0 0 0 1.481-3.624c0-2.827-2.268-5.126-5.058-5.126zm-2.87 34.814c0 1.476-1.184 2.678-2.641 2.678H14.533c-.35 0-.686.141-.934.392L2.642 54.387V5.397c0-1.475 1.185-2.677 2.643-2.677h47.563c1.459 0 2.643 1.202 2.643 2.678v.914c-.25.175-.49.367-.707.587L40.408 21.466H14.533a1.33 1.33 0 0 0-1.321 1.339c0 .74.591 1.34 1.321 1.34h23.755l-1.268 6.431c-.088.44.049.893.361 1.21a1.314 1.314 0 0 0 1.192.366l6.604-1.34c.258-.051.493-.178.676-.365l9.638-9.767v19.532zM44.269 28.267L40 29.133l.854-4.331 11.994-12.155 3.417 3.463-11.997 12.157zm15.8-16.012l-1.935 1.961-3.417-3.463 1.936-1.962a2.42 2.42 0 0 1 1.708-.715c1.332 0 2.416 1.098 2.416 2.448 0 .643-.258 1.275-.707 1.731z"/>
    </g>
</svg>
