<svg xmlns="http://www.w3.org/2000/svg" width="14" height="16" viewBox="0 0 14 16">
    <path fill="#333" fill-rule="nonzero" d="M3.933 15.98c-1.072-2.216-.501-3.486.323-4.682.903-1.31 1.135-2.607 1.135-2.607s.71.916.426 2.348C7.071 9.654 7.307 7.446 7.118 6.6c2.834 1.967 4.045 6.224 2.413 9.38 8.68-4.877 2.159-12.175 1.024-12.997.378.822.45 2.214-.315 2.889C8.946.999 5.746 0 5.746 0c.379 2.513-1.372 5.261-3.06 7.315-.059-1.002-.122-1.694-.652-2.653-.12 1.82-1.52 3.305-1.9 5.129-.514 2.47.385 4.278 3.8 6.189z"/>
</svg>
