<?xml version="1.0" encoding="utf-8" ?>
<svg xmlns="http://www.w3.org/2000/svg" xmlns:xlink="http://www.w3.org/1999/xlink" width="15" height="16">
	<defs>
		<clipPath id="clip_0">
			<rect x="-1233" y="-156" width="1885" height="1260" clip-rule="evenodd"/>
		</clipPath>
	</defs>
	<g clip-path="url(#clip_0)">
		<path fill="rgb(51,80,178)" stroke="none" transform="translate(0.399658 0.562134)" d="M9.12483 13.7243C9.20131 13.1922 9.29266 12.5845 9.29266 12.5845C9.51867 12.4913 9.74088 12.3916 9.95827 12.2689C10.1757 12.1462 10.3816 12.0041 10.5904 11.8519C10.5904 11.8519 11.169 12.0818 11.672 12.286C12.175 12.4901 13.0215 12.2938 13.2932 11.8338L14.0922 10.4806C14.3639 10.0205 14.1169 9.2014 13.6834 8.87129C13.25 8.54119 12.7596 8.16257 12.7596 8.16257C12.8188 7.6826 12.8374 7.20835 12.7625 6.70959C12.7625 6.70959 13.251 6.33094 13.6847 6.00337C14.1184 5.67579 14.3636 4.85459 14.0919 4.39451L13.2929 3.04134C13.0213 2.58127 12.1738 2.38251 11.6648 2.58253C11.1558 2.78255 10.5794 3.01242 10.5794 3.01242C10.1751 2.6996 9.74574 2.47822 9.29106 2.28832C9.29106 2.28832 9.20114 1.68239 9.12503 1.15037C9.04891 0.618355 8.4378 0 7.90398 0L6.30597 0.000476724C5.76265 0 5.16711 0.618355 5.09523 1.14675C5.02335 1.67515 4.93873 2.28051 4.93873 2.28051C4.69955 2.38119 4.47075 2.48458 4.25337 2.6073C4.03598 2.73002 3.83659 2.86834 3.64101 3.01311C3.64101 3.01311 3.05664 2.78165 2.54598 2.58399C2.03532 2.38632 1.18305 2.57969 0.911387 3.03976L0.112381 4.39293C-0.159281 4.853 0.0938436 5.67432 0.526728 6.00006C0.959612 6.32579 1.45858 6.70991 1.45858 6.70991C1.39285 7.1936 1.37426 7.66785 1.44917 8.16661C1.44917 8.16661 0.96332 8.53668 0.530063 8.86744C0.0968064 9.19819 -0.15364 10.0188 0.118022 10.4788L0.917027 11.832C1.18869 12.2921 2.04194 12.4924 2.5519 12.2917C3.06186 12.091 3.63225 11.8638 3.63225 11.8638C4.04313 12.1729 4.46589 12.398 4.92716 12.5842C4.92716 12.5842 5.01507 13.1888 5.08916 13.7225C5.16324 14.2563 5.76265 14.8747 6.30597 14.8742L7.90398 14.8747C8.4378 14.8747 9.04835 14.2563 9.12483 13.7243ZM4.82807 8.72992C4.10008 7.49703 4.5321 5.92053 5.79301 5.20872C7.05392 4.49691 8.66625 4.91933 9.39424 6.15222C10.1222 7.38512 9.6902 8.96161 8.42929 9.67342C7.16838 10.3852 5.55605 9.96281 4.82807 8.72992Z" fill-rule="evenodd"/>
	</g>

</svg>