<?xml version="1.0" encoding="utf-8" ?>
<svg xmlns="http://www.w3.org/2000/svg" xmlns:xlink="http://www.w3.org/1999/xlink" width="20" height="20">
	<defs>
		<clipPath id="clip_0">
			<rect x="-1204" y="-405" width="1885" height="1260" clip-rule="evenodd"/>
		</clipPath>
	</defs>
	<g clip-path="url(#clip_0)">
		<path fill="rgb(0,0,0)" fill-opacity="0.64705884" stroke="none" transform="translate(2.1875 2.1875)" d="M14.7734 0.0449219C14.8496 0.0136719 14.9258 0 15 0C15.332 0 15.625 0.277344 15.627 0.648438L15.627 14.9785C15.627 15.3496 15.332 15.627 15.002 15.627C14.9277 15.627 14.8516 15.6113 14.7754 15.582L6.79492 12.375C6.52539 13.3672 5.61328 14.1016 4.53125 14.1016C3.23828 14.1016 2.1875 13.0547 2.1875 11.7676C2.1875 11.5234 2.22461 11.2832 2.29688 11.0566L0.3125 11.0566C0.140625 11.0566 0 10.9121 0 10.7324L0 4.89258C0 4.71289 0.140625 4.56836 0.3125 4.56836L3.51563 4.56836L14.7734 0.0449219ZM3.59375 11.7676C3.59375 12.2832 4.01367 12.7012 4.53125 12.7012C5.02344 12.7012 5.42773 12.3203 5.4668 11.8398L3.80859 11.1738C3.66992 11.3398 3.59375 11.5488 3.59375 11.7676Z" fill-rule="evenodd"/>
	</g>

</svg>