<?xml version="1.0" encoding="utf-8" ?>
<svg xmlns="http://www.w3.org/2000/svg" xmlns:xlink="http://www.w3.org/1999/xlink" width="20" height="20">
	<defs>
		<clipPath id="clip_0">
			<rect x="-1168" y="-405" width="1885" height="1260" clip-rule="evenodd"/>
		</clipPath>
	</defs>
	<g clip-path="url(#clip_0)">
		<path fill="rgb(0,0,0)" fill-opacity="0.64705884" stroke="none" transform="translate(1.48486 3.63281)" d="M16.9175 5.86328C15.0659 1.96289 12.2671 0 8.51514 0C4.76123 0 1.96436 1.96289 0.112793 5.86523C-0.0375977 6.18164 -0.0375977 6.55273 0.112793 6.87109C1.96436 10.7715 4.76318 12.7344 8.51514 12.7344C12.269 12.7344 15.0659 10.7715 16.9175 6.86914C17.0679 6.55273 17.0679 6.18555 16.9175 5.86328ZM4.99951 6.36719C4.99951 8.26563 6.53857 9.80469 8.43701 9.80469C10.3354 9.80469 11.8745 8.26563 11.8745 6.36719C11.8745 4.46875 10.3354 2.92969 8.43701 2.92969C6.53857 2.92969 4.99951 4.46875 4.99951 6.36719ZM6.24951 6.36719C6.24951 7.57531 7.22889 8.55469 8.43701 8.55469C9.64513 8.55469 10.6245 7.57531 10.6245 6.36719C10.6245 5.15906 9.64513 4.17969 8.43701 4.17969C7.22889 4.17969 6.24951 5.15906 6.24951 6.36719Z" fill-rule="evenodd"/>
	</g>

</svg>