<?xml version="1.0" encoding="utf-8" ?>
<svg xmlns="http://www.w3.org/2000/svg" xmlns:xlink="http://www.w3.org/1999/xlink" width="20" height="20">
	<defs>
		<clipPath id="clip_0">
			<rect x="-1240" y="-816" width="1885" height="1260" clip-rule="evenodd"/>
		</clipPath>
	</defs>
	<g clip-path="url(#clip_0)">
		<path fill="rgb(0,0,0)" fill-opacity="0.64705884" stroke="none" transform="translate(2.1875 2.1875)" d="M2.96289 12.4902C2.92383 12.4961 2.88477 12.5 2.8457 12.5C2.67188 12.5 2.50977 12.4316 2.38086 12.3066C2.22656 12.1523 2.16016 11.9414 2.19727 11.7246L2.77344 8.43945C2.78125 8.40039 2.79883 8.36523 2.82813 8.33594L11.1074 0.0566406C11.1445 0.0195313 11.1934 0 11.2461 0C11.2988 0 11.3477 0.0195313 11.3848 0.0566406L14.6309 3.30469C14.707 3.38086 14.707 3.50391 14.6309 3.58008L6.35156 11.8594C6.32422 11.8887 6.28711 11.9063 6.24805 11.9141L2.96289 12.4902ZM0.625 14.1406L15 14.1406C15.3457 14.1406 15.625 14.4199 15.625 14.7656L15.625 15.4688C15.625 15.5547 15.5547 15.625 15.4688 15.625L0.15625 15.625C0.0703125 15.625 0 15.5547 0 15.4688L0 14.7656C0 14.4199 0.279297 14.1406 0.625 14.1406Z" fill-rule="evenodd"/>
	</g>

</svg>