<svg xmlns="http://www.w3.org/2000/svg" width="18" height="14" viewBox="0 0 18 14">
    <path fill="#999" fill-rule="nonzero" d="M9 5.25c-1.491 0-2.7 1.176-2.7 2.625C6.3 9.325 7.509 10.5 9 10.5c1.49 0 2.7-1.175 2.7-2.625S10.49 5.25 9 5.25zm7.2-2.625h-2.16c-.297 0-.617-.224-.71-.498l-.56-1.63C12.678.225 12.358 0 12.06 0H5.94c-.297 0-.617.224-.71.498l-.56 1.63c-.093.273-.413.497-.71.497H1.8c-.99 0-1.8.788-1.8 1.75v7.875C0 13.213.81 14 1.8 14h14.4c.99 0 1.8-.787 1.8-1.75V4.375c0-.962-.81-1.75-1.8-1.75zM9 12.25c-2.485 0-4.5-1.959-4.5-4.375S6.515 3.5 9 3.5s4.5 1.959 4.5 4.375S11.485 12.25 9 12.25zm6.57-6.651a.621.621 0 0 1-.63-.613c0-.338.282-.612.63-.612.348 0 .63.274.63.612a.621.621 0 0 1-.63.613z"/>
</svg>
