<?xml version="1.0" encoding="utf-8" ?>
<svg xmlns="http://www.w3.org/2000/svg" xmlns:xlink="http://www.w3.org/1999/xlink" width="16" height="16">
	<defs>
		<clipPath id="clip_0">
			<rect x="-504" y="-871" width="1440" height="1171" clip-rule="evenodd"/>
		</clipPath>
	</defs>
	<g clip-path="url(#clip_0)">
		<path fill="rgb(0,0,0)" fill-opacity="0.64705884" stroke="none" transform="translate(1.75 1.75)" d="M12 1.125L9.375 1.125L9.375 0.125C9.375 0.05625 9.31875 0 9.25 0L8.375 0C8.30625 0 8.25 0.05625 8.25 0.125L8.25 1.125L4.25 1.125L4.25 0.125C4.25 0.05625 4.19375 0 4.125 0L3.25 0C3.18125 0 3.125 0.05625 3.125 0.125L3.125 1.125L0.5 1.125C0.223438 1.125 0 1.34844 0 1.625L0 12C0 12.2766 0.223438 12.5 0.5 12.5L12 12.5C12.2766 12.5 12.5 12.2766 12.5 12L12.5 1.625C12.5 1.34844 12.2766 1.125 12 1.125ZM1.125 2.25L1.125 4.375L11.375 4.375L11.375 2.25L9.375 2.25L9.375 3C9.375 3.06875 9.31875 3.125 9.25 3.125L8.375 3.125C8.30625 3.125 8.25 3.06875 8.25 3L8.25 2.25L4.25 2.25L4.25 3C4.25 3.06875 4.19375 3.125 4.125 3.125L3.25 3.125C3.18125 3.125 3.125 3.06875 3.125 3L3.125 2.25L1.125 2.25ZM11.375 11.375L1.125 11.375L1.125 5.4375L11.375 5.4375L11.375 11.375Z" fill-rule="evenodd"/>
	</g>

</svg>