<?xml version="1.0" encoding="utf-8" ?>
<svg xmlns="http://www.w3.org/2000/svg" xmlns:xlink="http://www.w3.org/1999/xlink" width="24" height="24">
	<defs>
		<clipPath id="clip_0">
			<path d="M2 12C2 6.48 6.48 2 12 2C17.52 2 22 6.48 22 12C22 17.52 17.52 22 12 22C6.48 22 2 17.52 2 12ZM18.36 16.83C16.93 15.09 13.46 14.5 12 14.5C10.54 14.5 7.07 15.09 5.64 16.83C4.62 15.49 4 13.82 4 12C4 7.59 7.59 4 12 4C16.41 4 20 7.59 20 12C20 13.82 19.38 15.49 18.36 16.83ZM8.5 9.5C8.5 7.56 10.06 6 12 6C13.94 6 15.5 7.56 15.5 9.5C15.5 11.44 13.94 13 12 13C10.06 13 8.5 11.44 8.5 9.5ZM12 11C11.17 11 10.5 10.33 10.5 9.5C10.5 8.67 11.17 8 12 8C12.83 8 13.5 8.67 13.5 9.5C13.5 10.33 12.83 11 12 11ZM12 16.5C10.12 16.5 7.5 17.38 7.07 18.28C8.43 19.36 10.14 20 12 20C13.86 20 15.57 19.36 16.93 18.28C16.51 17.38 13.88 16.5 12 16.5Z" clip-rule="evenodd"/>
		</clipPath>
	</defs>
	<g clip-path="url(#clip_0)">
		<path fill="rgb(0,0,0)" fill-opacity="0.87058824" stroke="none" d="M0 0L24 0L24 24L0 24L0 0Z"/>
	</g>

</svg>