<svg xmlns="http://www.w3.org/2000/svg" width="18" height="17" viewBox="0 0 18 17">
    <g fill="#333" fill-rule="nonzero">
        <path d="M12.996.095H5.51A4.615 4.615 0 0 0 .9 4.704v7.482a4.615 4.615 0 0 0 4.61 4.609h7.486a4.615 4.615 0 0 0 4.61-4.609V4.704a4.615 4.615 0 0 0-4.61-4.609zm3.128 12.091a3.131 3.131 0 0 1-3.128 3.127H5.51a3.131 3.131 0 0 1-3.128-3.127V4.704A3.131 3.131 0 0 1 5.51 1.577h7.486a3.131 3.131 0 0 1 3.128 3.127v7.482z"/>
        <path d="M9.253 4.142a4.309 4.309 0 0 0-4.305 4.303 4.309 4.309 0 0 0 4.305 4.303 4.309 4.309 0 0 0 4.305-4.303 4.309 4.309 0 0 0-4.305-4.303zm0 7.124a2.825 2.825 0 0 1-2.823-2.82 2.825 2.825 0 0 1 2.823-2.822 2.825 2.825 0 0 1 2.823 2.821 2.825 2.825 0 0 1-2.823 2.821zM13.738 2.886a1.092 1.092 0 0 0-1.087 1.086c0 .286.117.566.32.769.201.201.482.318.767.318.287 0 .567-.117.77-.318a1.091 1.091 0 0 0 0-1.537 1.092 1.092 0 0 0-.77-.318z"/>
    </g>
</svg>
