<svg xmlns="http://www.w3.org/2000/svg" width="64" height="64" viewBox="0 0 64 64">
    <g fill="#000" fill-rule="evenodd">
        <path fill-rule="nonzero" d="M44.123.927a3.176 3.176 0 0 0-2.185-.899c-.018 0-.033-.016-.052-.019a1.035 1.035 0 0 0-.496.055c-.673.086-1.3.389-1.786.863L7.986 32.543a3.158 3.158 0 0 0-.895 1.859c-.13.977.2 1.959.895 2.658l18.822 18.822c.598.599 1.411.935 2.258.933.048 0 .095-.011.142-.013h.018c.014 0 .026-.007.04-.007a3.174 3.174 0 0 0 2.059-.914l31.618-31.618a3.194 3.194 0 0 0 0-4.516L44.123.927zm17.313 20.325c.02.019.026.046.044.065l-22.315 4.011L42.6 2.422s.012.006.016.01l18.82 18.82zM40.33 3.214l-3.918 26.131-26.135 3.922L40.33 3.214zM9.495 35.554l-.011-.016 22.902-3.436-4.006 22.316c-.02-.018-.046-.025-.067-.045L9.495 35.555zm21.217 17.927l3.899-21.712 2.118-.32a2.103 2.103 0 0 0 1.783-1.782l.32-2.12 21.717-3.899-29.837 29.833z"/>
        <path d="M14.154 48.21L2.443 59.92a1.065 1.065 0 1 0 1.505 1.505l11.71-11.71a1.064 1.064 0 0 0-1.504-1.506zM1.066 48.962c.283 0 .553-.112.753-.312l6.388-6.387A1.065 1.065 0 0 0 6.7 40.757L.314 47.145a1.064 1.064 0 0 0 .752 1.817zM15.218 63.554c.416.416 1.09.416 1.505 0l6.388-6.387a1.065 1.065 0 0 0-1.506-1.506l-6.387 6.388a1.064 1.064 0 0 0 0 1.505zM1.066 55.35c.283 0 .553-.113.753-.312l3.194-3.194a1.065 1.065 0 0 0-1.506-1.505L.314 53.532a1.065 1.065 0 0 0 .752 1.817zM12.024 58.855L8.83 62.05a1.065 1.065 0 1 0 1.506 1.505l3.194-3.193a1.065 1.065 0 0 0-1.506-1.506zM18.412 29.487c.415.416 1.09.416 1.505 0l5.323-5.322a1.065 1.065 0 0 0-1.505-1.506l-5.323 5.323a1.064 1.064 0 0 0 0 1.505zM27.681 21.283c.282 0 .553-.112.753-.312l1.065-1.065a1.065 1.065 0 0 0-1.506-1.505l-1.065 1.064a1.065 1.065 0 0 0 .753 1.818z"/>
    </g>
</svg>
