<svg xmlns="http://www.w3.org/2000/svg" width="128" height="40" viewBox="0 0 128 40">
    <g fill="#333" fill-rule="evenodd">
        <path fill-rule="nonzero" d="M51.838 20.684h-3.63V9.921H43.54v10.763h-3.623V6.844h11.922zM65.02 9.766h-7.374v2.39h6.75v2.797h-6.75v2.7h7.548v3.031H54.102V6.844h10.919zM67.156 6.844h6.004c3.128 0 5.39 1.244 5.39 4.661 0 3.108-1.974 4.557-4.813 4.557h-3.012v4.622h-3.569V6.844zm5.583 6.411c1.228 0 2.36-.098 2.36-1.71 0-1.34-.826-1.748-2.074-1.748h-2.3v3.458h2.014zM80.587 6.844h3.542v10.77h3.967V6.843h3.544v10.77h3.967V6.843h3.542v13.84H80.587zM113.26 20.684h-3.51l.254-9.209-4.711 9.21h-3.955V6.844h3.508l-.136 9.209 4.71-9.21h3.84zM127.672 20.684h-3.509l.253-9.233-4.711 9.233h-3.955V6.81h3.508l-.136 9.233 4.71-9.233h3.84v13.875zm-5.693-14.55c-1.821 0-3.547-.856-3.547-2.94h1.667c.175.758.97 1.129 1.88 1.129.911 0 1.706-.37 1.881-1.13h1.667c-.007 2.085-1.733 2.942-3.554 2.942h.006zM39.916 24.639h3.944l1.898 7.122 1.941-7.122h3.838v10.266H48.97l.131-7.83-2.32 7.825h-2.1l-2.298-7.814.088 7.814h-2.555zM59.007 34.905H56.29V24.639h2.717zM73.57 30.888a3.483 3.483 0 0 1-.481 1.815c-.82 1.638-2.235 2.43-4.289 2.43-3.227 0-5.19-2.3-5.19-5.39 0-3.147 2.146-5.332 5.242-5.332 2.323 0 4.483 1.422 4.672 3.857h-2.683c-.226-1.064-.935-1.611-2.059-1.611-1.49 0-2.437 1.236-2.437 3.149 0 1.854.964 3.06 2.437 3.06 1.199 0 1.899-.66 2.088-1.969l2.7-.009zM82.714 34.905h-4.617V24.639h2.736v3.434h2.02c2.449 0 3.997 1.066 3.997 3.375.01 2.475-1.523 3.457-4.136 3.457zm-.472-4.746h-1.4v2.569h1.475c1.165 0 1.74-.303 1.74-1.298 0-1.141-.871-1.271-1.815-1.271zM96.555 28.658l4.33 6.247h-3.368l-2.801-4.313-1.107 1.138v3.173h-2.684V24.639h2.655v3.924l3.47-3.924h3.357zM113.637 34.905h-2.643l.19-6.832-3.548 6.832h-2.978V24.639h2.642l-.104 6.832 3.55-6.832h2.89zM127.52 34.905h-2.644l.192-6.859-3.55 6.859h-2.976V24.599h2.642l-.106 6.858 3.55-6.858h2.89l.003 10.306zm-4.287-10.818c-1.372 0-2.672-.636-2.672-2.186h1.257c.131.565.73.84 1.415.84.686 0 1.286-.275 1.417-.84h1.255c-.007 1.555-1.304 2.186-2.679 2.186h.007zM13.26 22.761v4.136l2.479-2.497 2.478-2.497v-4.136l-2.478 2.497zM13.26 32.225v1.983l2.479-2.497 2.478-2.497V27.23l-2.478 2.497zM13.26 27.522v4.136l2.479-2.498 2.478-2.497v-4.137l-2.478 2.498zM15.739 8.019L9.27 14.537v1.997l3.989-4.02V12.5l2.479-2.498 2.478-2.497V5.522zM13.26 13.185v.013l-3.989 4.02v4.136l6.468-6.517 2.478-2.499V8.19l-2.478 2.498zM13.26 17.973v4.137l2.479-2.499 2.478-2.497v-4.136l-2.478 2.497z"/>
        <path d="M14.687 0H0v39.987h29.373V0H14.687zm11.111 19.994v16.392H3.574V3.602h22.224v16.392z"/>
    </g>
</svg>
