<svg xmlns="http://www.w3.org/2000/svg" width="45" height="61" viewBox="0 0 45 61">
    <g fill="#000" fill-rule="evenodd" opacity=".082">
        <path fill-rule="nonzero" d="M20.277 34.71v6.308l3.79-3.808 3.79-3.808v-6.308l-3.79 3.808zM20.277 49.143v3.025l3.79-3.809 3.79-3.808v-3.026l-3.79 3.809zM20.277 41.97v6.308l3.79-3.808 3.79-3.809v-6.308l-3.79 3.81zM24.067 12.229l-9.89 9.94v3.045l6.1-6.131v-.02l3.79-3.81 3.79-3.808V8.421zM20.277 20.107v.02l-6.1 6.13v6.308l9.89-9.94 3.79-3.809V12.49l-3.79 3.808zM20.277 27.408v6.309l3.79-3.81 3.79-3.808v-6.308l-3.79 3.809z"/>
        <path d="M22.458 0H0v60.98h44.916V0H22.458zM39.45 30.49v24.998H5.466V5.493H39.45v24.998z"/>
    </g>
</svg>
