<svg xmlns="http://www.w3.org/2000/svg" width="339" height="128" viewBox="0 0 339 128">
    <g fill="#333" fill-rule="evenodd">
        <path fill-rule="nonzero" d="M162.872 72.862v13.223l8.002-7.984 8-7.984V56.893l-8 7.984zM162.872 103.012v6.341l8.002-7.984 8-7.985v-6.343l-8 7.984zM162.872 87.938v13.224l8.002-7.984 8-7.985V71.967l-8 7.987zM170.84 25.733l-20.878 20.839v6.384l12.876-12.854v-.041l8.002-7.987 8-7.985v-6.34zM162.838 42.23v.04l-12.876 12.855V68.35L170.84 47.51l8-7.987V26.258l-8 7.985zM162.872 57.544v13.227l8.002-7.987 8-7.985V41.575l-8 7.985z"/>
        <path d="M167.412 0H120v127.846h94.822V0h-47.41zm35.871 63.924v52.407H131.54V11.517h71.744v52.407z"/>
        <g fill-rule="nonzero">
            <path d="M14 72H9.738V59.557H4.254V72H0V56h14zM29.797 59.378h-8.644v2.763h7.91v3.233h-7.91v3.122H30V72H17V56h12.797zM33 56h6.85C43.42 56 46 57.438 46 61.389c0 3.592-2.252 5.267-5.491 5.267h-3.437V72H33V56zm6.37 7.411c1.401 0 2.692-.113 2.692-1.978 0-1.548-.941-2.02-2.365-2.02h-2.625v3.998h2.298zM48 56h4.198v12.45H56.9V56h4.2v12.45h4.702V56H70v16H48zM87 72h-4.12l.296-10.646L77.644 72H73V56h4.12l-.16 10.646L82.492 56H87zM104 72h-4.12l.296-10.558L94.644 72H90V56h4.12l-.16 10.691L99.492 56H104v16zM93.15 52h1.957c.206.867 1.139 1.29 2.209 1.29 1.069 0 2.002-.423 2.208-1.29h1.957c-.008 2.383-2.034 3.363-4.174 3.363-2.13 0-4.157-.98-4.157-3.363z"/>
        </g>
        <g fill-rule="nonzero">
            <path d="M322 72h-4.12l.296-10.646L312.644 72H308V56h4.12l-.16 10.646L317.492 56H322zM339 72h-4.12l.296-10.558L329.644 72H325V56h4.12l-.16 10.691L334.492 56H339v16zm-10.85-20h1.957c.206.867 1.139 1.29 2.209 1.29 1.069 0 2.002-.423 2.208-1.29h1.957c-.008 2.383-2.034 3.363-4.174 3.363-2.13 0-4.157-.98-4.157-3.363zM231 56h6.108l2.941 11.1 3.007-11.1H249v16h-3.976l.203-12.204-3.594 12.197h-3.252l-3.56-12.18.137 12.18H231zM256 72h-4V56h4zM273 65.77a5.749 5.749 0 0 1-.724 2.877c-1.234 2.598-3.365 3.853-6.458 3.853-4.86 0-7.818-3.647-7.818-8.547 0-4.989 3.232-8.453 7.896-8.453 3.497 0 6.75 2.255 7.036 6.115h-4.042c-.34-1.687-1.407-2.554-3.1-2.554-2.243 0-3.67 1.96-3.67 4.993 0 2.939 1.45 4.852 3.67 4.852 1.805 0 2.859-1.046 3.144-3.122L273 65.77zM282.385 72H275V56h4.376v5.352h3.231c3.917 0 6.393 1.661 6.393 5.26.015 3.858-2.436 5.388-6.615 5.388zm-.755-7.397h-2.24v4.004h2.36c1.864 0 2.783-.472 2.783-2.023 0-1.778-1.393-1.98-2.903-1.98zM299.48 62.264L306 72h-5.071l-4.22-6.722-1.666 1.774v4.944H291V56h3.999v6.115L300.226 56h5.054z"/>
        </g>
    </g>
</svg>
