<svg xmlns="http://www.w3.org/2000/svg" xmlns:xlink="http://www.w3.org/1999/xlink" width="20" height="13" viewBox="0 0 20 13">
    <defs>
        <path id="a" d="M10 8.333a2.084 2.084 0 1 1-.002 4.169A2.084 2.084 0 0 1 10 8.333zm0-1.666a3.756 3.756 0 0 0-3.75 3.75 3.756 3.756 0 0 0 3.75 3.75 3.756 3.756 0 0 0 3.75-3.75A3.756 3.756 0 0 0 10 6.667zm0-.834a8.142 8.142 0 0 1 7.35 4.584A8.142 8.142 0 0 1 10 15a8.142 8.142 0 0 1-7.35-4.583A8.142 8.142 0 0 1 10 5.833zm0-1.666c-4.167 0-7.725 2.591-9.167 6.25 1.442 3.658 5 6.25 9.167 6.25s7.725-2.592 9.167-6.25c-1.442-3.659-5-6.25-9.167-6.25z"/>
    </defs>
    <g fill="none" fill-rule="evenodd" transform="translate(0 -4)">
        <mask id="b" fill="#fff">
            <use xlink:href="#a"/>
        </mask>
        <g fill="#000" fill-opacity=".38" mask="url(#b)">
            <path d="M0 0h20.04v20.04H0z"/>
        </g>
    </g>
</svg>
