<svg xmlns="http://www.w3.org/2000/svg" width="48" height="54" viewBox="0 0 48 54">
    <g fill="none" fill-rule="evenodd">
        <path fill="#EFF0F5" d="M10.286 0C8.4 0 6.857 1.519 6.857 3.375v47.25C6.857 52.481 8.4 54 10.286 54H44.57C46.457 54 48 52.481 48 50.625V13.5L34.286 0h-24z"/>
        <path fill="#B0B7BD" d="M37.714 13.5H48L34.286 0v10.125c0 1.856 1.543 3.375 3.428 3.375z"/>
        <path fill="#CAD1D8" d="M48 23.625L37.714 13.5H48z"/>
        <path fill="#F15642" d="M41.143 43.875c0 .928-.772 1.688-1.714 1.688H1.714c-.943 0-1.714-.76-1.714-1.688V27c0-.928.771-1.688 1.714-1.688H39.43c.942 0 1.714.76 1.714 1.688v16.875z"/>
        <g fill="#FFF">
            <path fill-rule="nonzero" d="M7.473 31.973c0-.445.356-.931.93-.931h3.167c1.783 0 3.387 1.174 3.387 3.425 0 2.133-1.604 3.321-3.387 3.321H9.28v1.782c0 .594-.384.93-.878.93-.452 0-.93-.336-.93-.93v-7.597zm1.808.768v3.361h2.289c.919 0 1.645-.798 1.645-1.635 0-.943-.726-1.726-1.645-1.726H9.28zM17.642 40.5c-.453 0-.947-.243-.947-.835V32c0-.484.494-.837.947-.837h3.139c6.264 0 6.126 9.337.123 9.337h-3.262zm.864-7.69v6.045h2.275c3.7 0 3.865-6.045 0-6.045h-2.275z"/>
            <path d="M29.13 32.918v2.145h3.495c.493 0 .987.486.987.957 0 .445-.494.81-.987.81h-3.496v2.833c0 .472-.341.835-.821.835-.603 0-.972-.363-.972-.835v-7.665c0-.484.37-.837.972-.837h4.812c.603 0 .96.353.96.837a.94.94 0 0 1-.96.918h-3.99v.002z"/>
        </g>
        <path fill="#CAD1D8" d="M39.429 45.563H6.857v1.687H39.43c.942 0 1.714-.76 1.714-1.688v-1.687c0 .928-.772 1.688-1.714 1.688z"/>
    </g>
</svg>
