<svg xmlns="http://www.w3.org/2000/svg" width="18" height="16" viewBox="0 0 18 16">
    <g fill="#B4B3BE" fill-rule="evenodd">
        <path fill-rule="nonzero" d="M17.27 3.195a2.28 2.28 0 0 0-1.693-.72H13.48l-.478-1.305c-.118-.313-.335-.584-.65-.811-.315-.227-.638-.34-.97-.34H6.59c-.33 0-.654.113-.969.34-.315.227-.532.498-.65.81l-.478 1.306H2.396a2.28 2.28 0 0 0-1.694.72A2.397 2.397 0 0 0 0 4.932v8.599c0 .678.234 1.257.702 1.737a2.28 2.28 0 0 0 1.694.72h13.18a2.28 2.28 0 0 0 1.695-.72c.468-.48.702-1.06.702-1.737v-8.6c0-.677-.234-1.256-.702-1.736zm-5.321 9.074c-.82.841-1.808 1.262-2.963 1.262-1.154 0-2.142-.421-2.962-1.262-.821-.842-1.231-1.854-1.231-3.038 0-1.183.41-2.196 1.23-3.037.821-.841 1.809-1.262 2.963-1.262 1.155 0 2.142.42 2.963 1.262.82.841 1.231 1.854 1.231 3.037 0 1.184-.41 2.196-1.231 3.038z"/>
        <path d="M8.986 6.467c-.742 0-1.377.27-1.905.811a2.696 2.696 0 0 0-.79 1.953c0 .762.263 1.413.79 1.953.528.54 1.163.811 1.905.811.743 0 1.378-.27 1.905-.81.528-.541.791-1.192.791-1.954 0-.761-.263-1.412-.79-1.953-.528-.54-1.163-.81-1.906-.81z"/>
    </g>
</svg>
