<svg xmlns="http://www.w3.org/2000/svg" width="16" height="16" viewBox="0 0 16 16">
    <path fill="#333" fill-rule="nonzero" d="M3.46 11.777a1.99 1.99 0 0 1 .001 2.826H3.46a2.001 2.001 0 0 1-1.42.587 1.999 1.999 0 0 1-1.419-.587 1.991 1.991 0 0 1 0-2.826 2.005 2.005 0 0 1 2.838 0zm0 0v.001h.002-.002zM.623 14.605v-.002H.62l.002.002zm-.589-9.37V8.12a7.043 7.043 0 0 1 5.001 2.077 7.052 7.052 0 0 1 2.075 5.006v.005h2.9a9.948 9.948 0 0 0-2.928-7.046A9.945 9.945 0 0 0 .034 5.234zM.039.094V2.98c6.738.005 12.215 5.488 12.22 12.228h2.893A15.07 15.07 0 0 0 10.718 4.53 15.07 15.07 0 0 0 .04.095z"/>
</svg>
