<svg xmlns="http://www.w3.org/2000/svg" width="14" height="19" viewBox="0 0 14 19">
    <g fill="#E11E44" fill-rule="nonzero">
        <path d="M13.371 1.902H9.93V.618A.623.623 0 0 0 9.3 0H4.7a.623.623 0 0 0-.629.618v1.284H.63A.623.623 0 0 0 0 2.521v1.902c0 .341.282.618.629.618H13.37A.623.623 0 0 0 14 4.423V2.52a.623.623 0 0 0-.629-.619zm-4.698 0H5.327v-.665h3.346v.665zM.873 6.278l.52 12.093a.624.624 0 0 0 .629.592h9.956a.624.624 0 0 0 .628-.592l.521-12.093H.873zM5.1 16.448a.623.623 0 0 1-.629.619.623.623 0 0 1-.628-.619V8.792c0-.341.281-.618.628-.618s.629.277.629.618v7.656zm2.527 0a.623.623 0 0 1-.628.619.623.623 0 0 1-.628-.619V8.792c0-.341.28-.618.628-.618.347 0 .628.277.628.618v7.656zm2.528 0a.623.623 0 0 1-.628.619.623.623 0 0 1-.629-.619V8.792c0-.341.282-.618.629-.618.347 0 .628.277.628.618v7.656z"/>
    </g>
</svg>
