<svg xmlns="http://www.w3.org/2000/svg" xmlns:xlink="http://www.w3.org/1999/xlink" width="18" height="18" viewBox="0 0 18 18">
    <defs>
        <path id="a" d="M15.502 9.491h-.794l-.276.274A6.47 6.47 0 0 1 16 13.991a6.5 6.5 0 1 1-6.5-6.5 6.47 6.47 0 0 1 4.225 1.566l.276-.274v-.792L18.999 3l1.491 1.491-4.988 5zm-6.002 0a4.5 4.5 0 1 0 0 9 4.5 4.5 0 0 0 0-9z"/>
    </defs>
    <g fill="none" fill-rule="evenodd" transform="translate(-3 -3)">
        <mask id="b" fill="#fff">
            <use xlink:href="#a"/>
        </mask>
        <g fill="#000" fill-opacity=".87" mask="url(#b)">
            <path d="M0 0h24v24H0z"/>
        </g>
    </g>
</svg>
