<?xml version="1.0" encoding="utf-8" ?>
<svg xmlns="http://www.w3.org/2000/svg" xmlns:xlink="http://www.w3.org/1999/xlink" width="20" height="18">
	<defs>
		<clipPath id="clip_0">
			<rect x="-1234" y="-192" width="1885" height="1260" clip-rule="evenodd"/>
		</clipPath>
	</defs>
	<g clip-path="url(#clip_0)">
		<path fill="rgb(51,80,178)" stroke="none" transform="matrix(4.37114e-08 1 1 -4.37114e-08 0.775024 1.41138)" d="M6.64391 2.51276L5.66951 3.46128Q5.55077 3.57687 5.40521 3.6362Q5.25965 3.69554 5.10607 3.69095Q4.97711 3.6871 4.85544 3.63814Q4.73376 3.58918 4.63055 3.49961Q4.587 3.43897 4.55529 3.37285Q4.52357 3.30673 4.50456 3.23697Q4.48556 3.16721 4.47979 3.09572Q4.47402 3.02424 4.48164 2.95302Q4.48927 2.88179 4.51008 2.81279Q4.53089 2.7438 4.56431 2.67893Q4.59773 2.61407 4.64284 2.55513Q4.68794 2.49619 4.74349 2.44481L7.38636 0L10.0636 2.44819Q10.1194 2.49921 10.1648 2.5578Q10.2101 2.61639 10.2438 2.68093Q10.2775 2.74546 10.2987 2.81417Q10.3198 2.88288 10.3277 2.95387Q10.3356 3.02485 10.3301 3.09615Q10.3247 3.16745 10.3059 3.2371Q10.2872 3.30675 10.2558 3.37282Q10.2243 3.43889 10.181 3.49957Q10.0779 3.58914 9.95605 3.6386Q9.83419 3.68805 9.70474 3.69287Q9.55028 3.69862 9.40344 3.64075Q9.25661 3.58287 9.13636 3.46886L8.14042 2.52449C8.14042 2.52449 8.17758 10.2375 8.17758 11.2875C8.17758 12.3375 6.68107 12.3375 6.68107 11.2875C6.68107 10.2375 6.64391 2.51276 6.64391 2.51276ZM10.181 3.49957Q10.1511 3.54148 10.116 3.58013L10.2549 3.42723Q10.2198 3.46589 10.181 3.49957ZM4.63055 3.49961Q4.59218 3.46631 4.55733 3.42808L4.69516 3.57928Q4.66032 3.54106 4.63055 3.49961ZM5.56463 4.95L2.85742 4.95C1.26172 4.95 0 6.225 0 7.8375L0 15C0 16.6125 1.26172 17.8875 2.85742 17.8875L11.9492 17.8875C13.5449 17.8875 14.8082 16.6125 14.8082 15C14.8082 15 14.8066 10.4191 14.8066 7.8375C14.8066 6.225 13.5449 4.95 11.9492 4.95L9.20809 4.95L9.20809 6.41251L11.9492 6.41251C12.7285 6.41251 13.361 7.0125 13.361 7.8375L13.361 15C13.361 15.825 12.7285 16.4285 11.9492 16.4285L2.85742 16.4285C2.04102 16.4285 1.44797 15.825 1.44797 15L1.44797 7.8375C1.44797 6.7875 2.04102 6.41251 2.85742 6.41251L5.56463 6.41251L5.56463 4.95Z" fill-rule="evenodd"/>
	</g>

</svg>