<svg xmlns="http://www.w3.org/2000/svg" width="63" height="64" viewBox="0 0 63 64">
    <g fill="#333" fill-rule="evenodd">
        <path fill-rule="nonzero" d="M32.079 36.496a4.214 4.214 0 0 0 1.133-4.088 4.22 4.22 0 0 0-2.997-3.005 4.177 4.177 0 0 0-2.223.023l-2.574-4.453a2.12 2.12 0 0 0-3.318-.45L.891 45.644a3.189 3.189 0 0 0-.464 3.79l.522.906a3.203 3.203 0 0 0 3.538 1.488l4.031-1.086 6.67 11.546a3.18 3.18 0 0 0 4.342 1.164 3.174 3.174 0 0 0 1.165-4.337L14.87 49.034l18.515-4.986h.015a2.118 2.118 0 0 0 1.252-3.093l-2.574-4.46zm-2.411-5.05a2.106 2.106 0 0 1 1.28 3.092l-1.834-3.155c.185-.002.37.02.549.066l.005-.002zM3.956 49.78a1.06 1.06 0 0 1-1.172-.497l-.523-.905a1.057 1.057 0 0 1 .14-1.249l5.66-5.638 3.593 6.218-7.698 2.071zm14.902 10.394a1.057 1.057 0 0 1-.915 1.593c-.38-.001-.73-.206-.919-.536l-6.39-11.058 2.117-.57 6.107 10.57zM13.77 47.137l-4.156-7.194 13.967-13.91 9.235 15.973-19.046 5.13zM57.702 0H33.35a5.298 5.298 0 0 0-5.294 5.29v10.578a5.298 5.298 0 0 0 5.294 5.289h7.412v6.347a1.058 1.058 0 0 0 1.886.661l5.612-7.008h9.443a5.298 5.298 0 0 0 5.294-5.29V5.29A5.298 5.298 0 0 0 57.702 0zm3.177 15.868a3.175 3.175 0 0 1-3.177 3.173H47.75c-.321 0-.626.146-.826.397l-4.044 5.05V20.1c0-.584-.474-1.058-1.06-1.058h-8.47a3.175 3.175 0 0 1-3.176-3.173V5.289a3.175 3.175 0 0 1 3.176-3.173h24.353a3.175 3.175 0 0 1 3.177 3.173v10.579z"/>
        <path d="M34.408 5.29h2.118v2.115h-2.118zM38.643 5.29h18v2.115h-18zM34.408 9.52h6.353v2.116h-6.353zM42.879 9.52h2.117v2.116H42.88zM34.408 13.752h10.588v2.116H34.408zM47.114 9.52h9.53v2.116h-9.53zM47.114 13.752h2.118v2.116h-2.118zM51.35 13.752h5.293v2.116H51.35zM29.114 23.273h2.118v4.231h-2.118zM34.229 36.354l1.059-1.832 3.667 2.115-1.058 1.833zM34.228 29.232l3.668-2.115 1.06 1.832-3.669 2.116z"/>
    </g>
</svg>
