<?xml version="1.0" encoding="utf-8" ?>
<svg xmlns="http://www.w3.org/2000/svg" xmlns:xlink="http://www.w3.org/1999/xlink" width="16" height="16">
	<defs>
		<clipPath id="clip_0">
			<rect x="-1070.8501" y="-230.84998" width="1790.75" height="1197" clip-rule="evenodd"/>
		</clipPath>
	</defs>
	<g clip-path="url(#clip_0)">
		<path fill="rgb(255,255,255)" stroke="none" transform="matrix(0.95 0 0 0.95 0.75 0.179932)" d="M6.36461 7.92222L14.1529 0.133894C14.3315 -0.0446314 14.6209 -0.0446314 14.7994 0.133894L15.6768 1.01121C15.8553 1.18973 15.8553 1.47918 15.6768 1.6577L7.88842 9.44603L6.36461 7.92222ZM10.2586 1.8732L10.909 1.22288C10.9804 1.15143 11.0205 1.05454 11.0205 0.953502C11.0205 0.743108 10.85 0.57255 10.6396 0.57255L2.93015 0.57255C1.91128 0.57255 1.54181 0.678636 1.16932 0.877845C0.796832 1.07705 0.504503 1.36938 0.305295 1.74187C0.106086 2.11436 0 2.48383 0 3.5027L0 12.8805C0 13.8994 0.106086 14.2688 0.305295 14.6413C0.504503 15.0138 0.796832 15.3061 1.16932 15.5054C1.54181 15.7046 1.91128 15.8106 2.93015 15.8106L12.3079 15.8106C13.3268 15.8106 13.6963 15.7046 14.0688 15.5054C14.4413 15.3061 14.7336 15.0138 14.9328 14.6413C15.132 14.2688 15.2381 13.8994 15.2381 12.8805L15.2381 5.17105C15.2381 5.07002 15.198 4.97312 15.1265 4.90168C14.9777 4.75291 14.7365 4.75291 14.5878 4.90168L13.9374 5.552C13.7946 5.69489 13.7143 5.88868 13.7143 6.09075L13.7143 12.8805C13.7143 13.5794 13.6813 13.7503 13.5891 13.9227C13.5319 14.0296 13.4571 14.1044 13.3501 14.1616C13.1778 14.2538 13.0068 14.2868 12.3079 14.2868L2.93015 14.2868C2.23126 14.2868 2.06033 14.2538 1.88795 14.1616C1.78101 14.1044 1.7062 14.0296 1.64901 13.9227C1.55682 13.7503 1.52381 13.5794 1.52381 12.8805L1.52381 3.5027C1.52381 2.80381 1.55682 2.63288 1.64901 2.4605C1.7062 2.35356 1.78101 2.27875 1.88795 2.22156C2.06033 2.12937 2.23126 2.09636 2.93015 2.09636L9.71989 2.09636C9.92196 2.09636 10.1158 2.01609 10.2586 1.8732ZM6.17462 10.7048L5.00511 11.0947C4.88535 11.1346 4.75591 11.0699 4.71599 10.9501C4.70035 10.9032 4.70035 10.8525 4.71599 10.8055L5.10582 9.63603C5.25303 9.19442 5.4994 8.79251 5.82592 8.46103L7.34961 9.98472C7.01814 10.3112 6.61622 10.5576 6.17462 10.7048Z" fill-rule="evenodd"/>
	</g>

</svg>