<svg xmlns="http://www.w3.org/2000/svg" width="18" height="21" viewBox="0 0 18 21">
    <g fill="none" fill-rule="nonzero">
        <path fill="#FF0400" d="M17.323 10.824a2.032 2.032 0 0 0-.683-1.112 2.232 2.232 0 0 0-1.217-.528c-1.457-.15-3.655-.225-6.593-.225s-5.131.075-6.58.225a2.213 2.213 0 0 0-1.224.528c-.348.3-.578.67-.689 1.112-.206.87-.309 2.18-.309 3.933 0 1.783.103 3.094.31 3.933.102.442.33.813.682 1.112.353.3.758.472 1.218.517 1.457.158 3.654.236 6.592.236 2.938 0 5.136-.078 6.593-.236.459-.045.863-.217 1.211-.517.349-.299.578-.67.69-1.112.205-.869.308-2.18.308-3.933 0-1.783-.103-3.094-.309-3.933zM5.053 11.96h-1.27v6.394H2.593v-6.394H1.347v-1.056h3.706v1.056zm3.207 6.394H7.203v-.607c-.428.457-.832.686-1.212.686-.364 0-.594-.14-.688-.416-.064-.18-.096-.454-.096-.82v-4.394h1.058v4.09c0 .24.004.37.012.393.023.158.106.236.249.236.214 0 .44-.157.677-.472v-4.247H8.26v5.55zM12.3 16.69c0 .547-.036.921-.107 1.124-.135.411-.416.618-.843.618-.38 0-.748-.207-1.105-.618v.539H9.187v-7.45h1.057v2.438c.34-.404.709-.606 1.105-.606.427 0 .708.21.843.63.071.194.107.565.107 1.111v2.214zm4.015-.921h-2.127v.977c0 .517.182.775.547.775.261 0 .42-.134.475-.404.016-.075.024-.304.024-.686h1.08v.146c0 .368-.008.585-.023.652a1.318 1.318 0 0 1-.25.607c-.285.397-.713.596-1.283.596-.546 0-.974-.192-1.283-.573-.229-.278-.344-.712-.344-1.304v-1.944c0-.592.111-1.026.333-1.304.308-.381.732-.572 1.27-.572.531 0 .951.19 1.26.572.214.278.32.712.32 1.304v1.158z"/>
        <path fill="#FF0400" d="M10.778 13.645c-.182 0-.36.082-.534.247v3.382c.174.165.352.247.534.247.309 0 .464-.25.464-.753v-2.37c0-.502-.155-.753-.464-.753zM14.722 13.645c-.356 0-.535.255-.535.764v.517h1.07v-.517c0-.51-.179-.764-.535-.764z"/>
        <path fill="#333" d="M4.365 4.903v3.045h1.187V4.903L6.99.419H5.778L4.97 3.374 4.127.42h-1.26c.223.63.48 1.33.773 2.101.372 1.034.614 1.828.725 2.383zM8.58 8.026c.547 0 .967-.19 1.26-.573.222-.277.333-.719.333-1.326V4.161c0-.6-.112-1.038-.333-1.315-.293-.382-.713-.573-1.26-.573-.53 0-.946.191-1.246.573C7.112 3.123 7 3.562 7 4.161v1.966c0 .6.11 1.042.333 1.326.3.382.716.573 1.247.573zM8.07 3.96c0-.517.17-.776.51-.776.342 0 .512.259.512.776v2.36c0 .524-.17.786-.511.786-.34 0-.51-.262-.51-.787v-2.36zM11.847 8.026c.396 0 .804-.232 1.224-.696v.618h1.08V2.34h-1.08v4.28c-.238.323-.463.484-.677.484-.143 0-.226-.083-.25-.247-.008-.015-.012-.147-.012-.394V2.341h-1.08v4.427c0 .382.031.663.094.843.103.277.337.415.701.415z"/>
    </g>
</svg>
