<?xml version="1.0" encoding="utf-8" ?>
<svg xmlns="http://www.w3.org/2000/svg" xmlns:xlink="http://www.w3.org/1999/xlink" width="20" height="20">
	<defs>
		<clipPath id="clip_0">
			<rect x="-1276" y="-816" width="1885" height="1260" clip-rule="evenodd"/>
		</clipPath>
	</defs>
	<g clip-path="url(#clip_0)">
		<path fill="rgb(0,0,0)" fill-opacity="0.64705884" stroke="none" transform="translate(2.5 2.1875)" d="M11.875 2.8125L14.375 2.8125C14.7207 2.8125 15 3.0918 15 3.4375L15 4.0625C15 4.14844 14.9297 4.21875 14.8438 4.21875L13.6641 4.21875L13.1816 14.4336C13.1504 15.1016 12.6016 15.625 11.9336 15.625L3.06641 15.625C2.40039 15.625 1.84961 15.0996 1.81836 14.4336L1.33594 4.21875L0.15625 4.21875C0.0703125 4.21875 0 4.14844 0 4.0625L0 3.4375C0 3.0918 0.279297 2.8125 0.625 2.8125L3.125 2.8125L3.125 1.25C3.125 0.560547 3.68555 0 4.375 0L10.625 0C11.3145 0 11.875 0.560547 11.875 1.25L11.875 2.8125ZM4.53125 2.8125L10.4688 2.8125L10.4688 1.40625L4.53125 1.40625L4.53125 2.8125Z" fill-rule="evenodd"/>
	</g>

</svg>