<?xml version="1.0" encoding="utf-8" ?>
<svg xmlns="http://www.w3.org/2000/svg" xmlns:xlink="http://www.w3.org/1999/xlink" width="20" height="20">
	<defs>
		<clipPath id="clip_0">
			<rect x="-1204" y="-816" width="1885" height="1260" clip-rule="evenodd"/>
		</clipPath>
	</defs>
	<g clip-path="url(#clip_0)">
		<path fill="rgb(0,0,0)" fill-opacity="0.64705884" stroke="none" transform="translate(2.1875 2.1875)" d="M15 0C14.9258 0 14.8496 0.0136719 14.7734 0.0449219L3.51563 4.56836L0.3125 4.56836C0.140625 4.56836 0 4.71289 0 4.89258L0 10.7324C0 10.9121 0.140625 11.0566 0.3125 11.0566L2.29883 11.0566C2.22656 11.2832 2.1875 11.5234 2.1875 11.7676C2.1875 13.0547 3.23828 14.1016 4.53125 14.1016C5.61328 14.1016 6.52539 13.3672 6.79492 12.375L14.7754 15.582C14.8516 15.6113 14.9277 15.627 15.002 15.627C15.332 15.627 15.627 15.3496 15.627 14.9785L15.627 0.648438C15.625 0.277344 15.332 0 15 0ZM4.03906 9.75195L14.2188 13.8418L14.2188 1.7832L4.03906 5.87305L3.78711 5.97461L1.40625 5.97461L1.40625 9.65039L3.78711 9.65039L4.03906 9.75195ZM4.53125 12.7012C4.01367 12.7012 3.59375 12.2832 3.59375 11.7676C3.59375 11.5488 3.66992 11.3398 3.80859 11.1738L5.4668 11.8398C5.42773 12.3203 5.02344 12.7012 4.53125 12.7012Z" fill-rule="evenodd"/>
	</g>

</svg>