<?xml version="1.0" encoding="utf-8" ?>
<svg xmlns="http://www.w3.org/2000/svg" xmlns:xlink="http://www.w3.org/1999/xlink" width="64" height="64">
	<defs>
		<clipPath id="clip_0">
			<rect x="-690" y="-231" width="1440" height="1471" clip-rule="evenodd"/>
		</clipPath>
	</defs>
	<g clip-path="url(#clip_0)">
		<path fill="rgb(0,0,0)" stroke="none" transform="translate(0.000854492 0)" d="M51.75 18.5938C52.4403 18.5938 53 18.0341 53 17.3438L53 3.75C53 1.68225 51.3178 0 49.25 0L3.75 0C1.68225 0 0 1.68225 0 3.75L0 60.25C0 62.3177 1.68225 64 3.75 64L49.25 64C51.3178 64 53 62.3177 53 60.25L53 51.041C53 50.3506 52.4403 49.791 51.75 49.791C51.0597 49.791 50.5 50.3506 50.5 51.041L50.5 60.25C50.5 60.9393 49.9393 61.5 49.25 61.5L3.75 61.5C3.06075 61.5 2.5 60.9393 2.5 60.25L2.5 3.75C2.5 3.06075 3.06075 2.5 3.75 2.5L49.25 2.5C49.9393 2.5 50.5 3.06075 50.5 3.75L50.5 17.3438C50.5 18.0341 51.0597 18.5938 51.75 18.5938Z"/>
	</g>
	<defs>
		<clipPath id="clip_1">
			<rect x="-690" y="-231" width="1440" height="1471" clip-rule="evenodd"/>
		</clipPath>
	</defs>
	<g clip-path="url(#clip_1)">
		<path fill="rgb(0,0,0)" stroke="none" transform="translate(15.0009 6.75)" d="M0 11.5C0 5.15887 5.15887 0 11.5 0C17.8411 0 23 5.15887 23 11.5C23 14.7896 21.6112 17.7606 19.3895 19.8586C19.3479 19.903 19.3036 19.9452 19.2553 19.9836C17.2089 21.8559 14.4855 22.9999 11.4999 22.9999C8.51425 22.9999 5.79087 21.856 3.7445 19.9836C3.69612 19.9452 3.65188 19.9031 3.61025 19.8586C1.38875 17.7606 0 14.7896 0 11.5ZM15.0596 13.7483C16.543 14.4047 17.8206 15.4681 18.7425 16.8354C19.8461 15.3413 20.5 13.4959 20.5 11.5C20.5 6.53737 16.4626 2.5 11.5 2.5C6.53737 2.5 2.5 6.53737 2.5 11.5C2.5 13.4959 3.15387 15.3413 4.2575 16.8354C5.17937 15.4681 6.457 14.4047 7.94037 13.7483C7.35163 12.9874 7 12.0343 7 11L7 10.1875C7 7.70613 9.01863 5.6875 11.5 5.6875C13.9814 5.6875 16 7.70613 16 10.1875L16 11C16 12.0343 15.6484 12.9874 15.0596 13.7483ZM9.5 11L9.5 10.1875C9.5 9.08475 10.3973 8.1875 11.5 8.1875C12.6027 8.1875 13.5 9.08475 13.5 10.1875L13.5 11C13.5 12.1027 12.6027 13 11.5 13C10.3973 13 9.5 12.1027 9.5 11ZM6.06362 18.6665C7.57512 19.816 9.45887 20.5 11.5 20.5C13.5411 20.5 15.4247 19.816 16.9364 18.6665C15.8377 16.7184 13.7876 15.5 11.5 15.5C9.21237 15.5 7.16225 16.7184 6.06362 18.6665Z" fill-rule="evenodd"/>
	</g>
	<defs>
		<clipPath id="clip_2">
			<rect x="-690" y="-231" width="1440" height="1471" clip-rule="evenodd"/>
		</clipPath>
	</defs>
	<g clip-path="url(#clip_2)">
		<path fill="rgb(0,0,0)" stroke="none" transform="translate(25.2509 54.75)" d="M8 0L1.25 0C0.55975 0 0 0.559625 0 1.25C0 1.94037 0.55975 2.5 1.25 2.5L8 2.5C8.69025 2.5 9.25 1.94037 9.25 1.25C9.25 0.559625 8.69025 0 8 0Z"/>
	</g>
	<defs>
		<clipPath id="clip_3">
			<rect x="-690" y="-231" width="1440" height="1471" clip-rule="evenodd"/>
		</clipPath>
	</defs>
	<g clip-path="url(#clip_3)">
		<path fill="rgb(0,0,0)" stroke="none" transform="translate(14.2509 47.75)" d="M19 0L1.25 0C0.55975 0 0 0.559625 0 1.25C0 1.94037 0.55975 2.5 1.25 2.5L19 2.5C19.6903 2.5 20.25 1.94037 20.25 1.25C20.25 0.559625 19.6903 0 19 0Z"/>
	</g>
	<defs>
		<clipPath id="clip_4">
			<rect x="-690" y="-231" width="1440" height="1471" clip-rule="evenodd"/>
		</clipPath>
	</defs>
	<g clip-path="url(#clip_4)">
		<path fill="rgb(0,0,0)" stroke="none" transform="translate(14.2509 40.75)" d="M19 0L1.25 0C0.55975 0 0 0.559625 0 1.25C0 1.94037 0.55975 2.5 1.25 2.5L19 2.5C19.6903 2.5 20.25 1.94037 20.25 1.25C20.25 0.559625 19.6903 0 19 0Z"/>
	</g>
	<defs>
		<clipPath id="clip_5">
			<rect x="-690" y="-231" width="1440" height="1471" clip-rule="evenodd"/>
		</clipPath>
	</defs>
	<g clip-path="url(#clip_5)">
		<path fill="rgb(0,0,0)" stroke="none" transform="translate(8.91089 33.75)" d="M2.13488 0.36625C1.9025 0.13375 1.58 0 1.25 0C0.921125 0 0.598625 0.13375 0.36625 0.36625C0.13375 0.59875 0 0.92125 0 1.25C0 1.57875 0.133625 1.90125 0.36625 2.13375C0.6 2.36625 0.921125 2.5 1.25 2.5C1.58 2.5 1.90125 2.36625 2.13488 2.13375C2.36738 1.90125 2.50125 1.57875 2.50125 1.25C2.50125 0.92125 2.3675 0.59875 2.13488 0.36625Z"/>
	</g>
	<defs>
		<clipPath id="clip_6">
			<rect x="-690" y="-231" width="1440" height="1471" clip-rule="evenodd"/>
		</clipPath>
	</defs>
	<g clip-path="url(#clip_6)">
		<path fill="rgb(0,0,0)" stroke="none" transform="translate(8.91089 40.75)" d="M2.13488 0.36625C1.90125 0.13375 1.58 0 1.25 0C0.921125 0 0.6 0.13375 0.36625 0.36625C0.13375 0.59875 0 0.92125 0 1.25C0 1.57875 0.133625 1.90125 0.36625 2.13375C0.6 2.36625 0.921125 2.5 1.25 2.5C1.58 2.5 1.90125 2.36625 2.13488 2.13375C2.36738 1.90125 2.50125 1.57875 2.50125 1.25C2.50125 0.92125 2.3675 0.59875 2.13488 0.36625Z"/>
	</g>
	<defs>
		<clipPath id="clip_7">
			<rect x="-690" y="-231" width="1440" height="1471" clip-rule="evenodd"/>
		</clipPath>
	</defs>
	<g clip-path="url(#clip_7)">
		<path fill="rgb(0,0,0)" stroke="none" transform="translate(8.91089 47.75)" d="M2.13488 0.36625C1.90125 0.13375 1.58 0 1.25 0C0.921125 0 0.6 0.13375 0.36625 0.36625C0.13375 0.59875 0 0.92125 0 1.25C0 1.57875 0.133625 1.90125 0.36625 2.13375C0.598625 2.36625 0.921125 2.5 1.25 2.5C1.58 2.5 1.9025 2.36625 2.13488 2.13375C2.36738 1.90125 2.50125 1.57875 2.50125 1.25C2.50125 0.92125 2.3675 0.59875 2.13488 0.36625Z"/>
	</g>
	<defs>
		<clipPath id="clip_8">
			<rect x="-690" y="-231" width="1440" height="1471" clip-rule="evenodd"/>
		</clipPath>
	</defs>
	<g clip-path="url(#clip_8)">
		<path fill="rgb(0,0,0)" stroke="none" transform="translate(14.2509 33.75)" d="M19 0L1.25 0C0.55975 0 0 0.559625 0 1.25C0 1.94037 0.55975 2.5 1.25 2.5L19 2.5C19.6903 2.5 20.25 1.94037 20.25 1.25C20.25 0.559625 19.6903 0 19 0Z"/>
	</g>
	<defs>
		<clipPath id="clip_9">
			<rect x="-690" y="-231" width="1440" height="1471" clip-rule="evenodd"/>
		</clipPath>
	</defs>
	<g clip-path="url(#clip_9)">
		<path fill="rgb(0,0,0)" stroke="none" transform="translate(37.1986 15.5844)" d="M20.1927 0.181102C21.5475 -0.181773 22.9622 0.00447735 24.1766 0.705602C26.6836 2.1531 27.5456 5.37035 26.0981 7.87735L10.368 35.1227C10.2818 35.2721 10.1656 35.402 10.0267 35.5042L1.99122 41.4222C1.77185 41.5839 1.51135 41.6657 1.24985 41.6657C1.03472 41.6657 0.819096 41.6102 0.624972 41.4982C0.194971 41.2499 -0.0472785 40.7705 0.00772146 40.277L1.11497 30.359C1.1341 30.1876 1.1886 30.022 1.27472 29.8726L17.005 2.62723C17.706 1.41285 18.8382 0.544102 20.1927 0.181102ZM22.701 8.76135L23.9331 6.62723C24.3003 5.9911 24.3978 5.24998 24.2077 4.54048C24.0176 3.83098 23.5626 3.23798 22.9265 2.87073C22.2905 2.50348 21.5495 2.40573 20.8397 2.59598C20.1302 2.7861 19.5372 3.2411 19.17 3.87723L17.9378 6.01135L22.701 8.76135ZM8.82797 32.7901L4.06485 30.0401L16.688 8.17635L21.4511 10.9264L8.82797 32.7901ZM3.38747 32.5359L2.80922 37.7149L7.00522 34.6246L3.38747 32.5359Z" fill-rule="evenodd"/>
	</g>

</svg>